<svg id="Layer_1" data-name="Layer 1" xmlns="http://www.w3.org/2000/svg" xmlns:xlink="http://www.w3.org/1999/xlink" viewBox="0 0 442.61 65.16"><defs><style>.cls-1{fill:url(#linear-gradient);}.cls-2{fill:#fff;}.cls-3{fill:url(#linear-gradient-2);}.cls-4{fill:#004b23;}.cls-5{fill:#7fba00;isolation:isolate;}</style><linearGradient id="linear-gradient" x1="23.25" y1="59.76" x2="180.03" y2="63.4" gradientUnits="userSpaceOnUse"><stop offset="0" stop-color="#7fba00"/><stop offset="1" stop-color="#004b23"/></linearGradient><linearGradient id="linear-gradient-2" x1="154.21" y1="78.23" x2="193.05" y2="78.23" xlink:href="#linear-gradient"/></defs><path class="cls-1" d="M183,61.75a40.7,40.7,0,0,1-.61,7.31l-1.17.47-12.58-9.24a9.9,9.9,0,0,0-2.76-1.42l-.5-.6c-1.1-7.49-6.2-10.47-17.14-10.47-12.43,0-17.46,4-17.46,14,0,10.29,5,14.48,17.46,14.48a42.92,42.92,0,0,0,4.41-.21l.67.29a10.21,10.21,0,0,0,2.06,2l10.95,8-.21,1.31a57,57,0,0,1-17.88,2.41c-7.6,0-13.92-.93-19-2.84l-1,.7v0l-.75.74h-8.91l-7.65-7.64V68.82l-.75-.75H88.57l-.74.75V80.33l-8.41,8.4H71.19L70.44,88V58.29l-9.12-9.12H53.16l-.75.75V78.17L41.84,88.73H35.62L34.88,88V56.31l-7.14-7.14H15.58l-.75-.75V40.07l4.69-4.7H81.7l6.13,6.13v12l.74.74h21.6l.75-.74V45.57l10.2-10.2h6.36l.75.75h0l1,.7c5.08-1.89,11.4-2.82,19-2.82C171.94,34,183,42.77,183,61.75Z" transform="translate(-14.83 -34)"/><path class="cls-2" d="M182.15,70.22l-13.52-9.93a9.72,9.72,0,0,0-3.19-1.54,9.45,9.45,0,0,0-2.55-.34,9.75,9.75,0,0,0-7.83,4l-1.77,2.4a9.72,9.72,0,0,0,2.08,13.58l12.09,8.87L183.7,99.16,197,81.1Zm.95,25-12.69-9.32L157,76.09a7.54,7.54,0,0,1-.8-.68,6.92,6.92,0,0,1-.68-9l.88-1.2.89-1.2A6.92,6.92,0,0,1,167,62.55l14.39,10.57h0l11.68,8.58Z" transform="translate(-14.83 -34)"/><path class="cls-3" d="M193.05,81.7l-10,13.54-12.69-9.32L157,76.09a7.54,7.54,0,0,1-.8-.68,6.92,6.92,0,0,1-.68-9l.88-1.2.89-1.2A6.92,6.92,0,0,1,167,62.55l14.39,10.57h0Z" transform="translate(-14.83 -34)"/><polygon class="cls-4" points="206.71 13.39 179.18 13.39 179.18 21.65 188.45 21.65 188.45 46.18 197.44 46.18 197.44 21.65 206.71 21.65 206.71 13.39"/><path class="cls-4" d="M237,46.66a8.15,8.15,0,0,0-8,5.93l-8.45,27.59h9.18l1.56-5.54h11.51l1.5,5.54h9.18l-8.45-27.59A8.13,8.13,0,0,0,237,46.66Zm-3.5,20,3.16-11.42c.09-.34.19-.48.39-.48s.29.14.38.48l3.11,11.42Z" transform="translate(-14.83 -34)"/><path class="cls-4" d="M267.1,47.39h-9V72.65c0,4.61,2.23,7.53,7.77,7.53h15.68V71.92H267.1Z" transform="translate(-14.83 -34)"/><path class="cls-4" d="M294.44,67.79h14.48v-8H294.44V55.41H310v-8H293.23c-5.54,0-7.77,2.92-7.77,7.53V72.65c0,4.61,2.23,7.53,7.77,7.53h17v-8H294.44Z" transform="translate(-14.83 -34)"/><path class="cls-4" d="M338.93,67.55,327.37,49.24a6,6,0,0,0-5.44-2.62,5.45,5.45,0,0,0-5.58,5.58v28h8.5V60l11.56,18.31a6.1,6.1,0,0,0,5.44,2.63,5.42,5.42,0,0,0,5.58-5.54v-28h-8.5Z" transform="translate(-14.83 -34)"/><polygon class="cls-4" points="336.98 21.65 346.25 21.65 346.25 46.18 355.24 46.18 355.24 21.65 364.51 21.65 364.51 13.39 336.98 13.39 336.98 21.65"/><polygon class="cls-5" points="390.98 25.73 378.11 25.73 378.11 13.39 369.13 13.39 369.13 46.18 378.11 46.18 378.11 33.99 390.98 33.99 390.98 46.18 399.97 46.18 399.97 13.39 390.98 13.39 390.98 25.73"/><path class="cls-4" d="M456.47,73.13a42.26,42.26,0,0,0-4.57.3,17.13,17.13,0,0,0,2.82-9.62c0-9.76-7.38-17.1-17.29-17.1s-17.29,7.34-17.29,17.1a16.79,16.79,0,0,0,17.05,17.1h20.25V73.13Zm-19-.72c-4.56,0-8.06-3.74-8.06-8.6s3.5-8.6,8.06-8.6,8.06,3.74,8.06,8.6S442,72.41,437.43,72.41Z" transform="translate(-14.83 -34)"/></svg>