<svg xmlns="http://www.w3.org/2000/svg" version="1.1" xmlns:xlink="http://www.w3.org/1999/xlink" width="1000" height="1000"><metadata><rdf:RDF xmlns:rdf="http://www.w3.org/1999/02/22-rdf-syntax-ns#" xmlns:dc="http://purl.org/dc/elements/1.1/"><rdf:Description><dc:creator>RealFaviconGenerator</dc:creator><dc:source>https://realfavicongenerator.net</dc:source></rdf:Description></rdf:RDF></metadata><g clip-path="url(#SvgjsClipPath1009)"><rect width="1000" height="1000" fill="#ffffff"></rect><g transform="matrix(1.4271151885830784,0,0,1.4271151885830784,150,374.7920489296636)"><svg xmlns="http://www.w3.org/2000/svg" xmlns:xlink="http://www.w3.org/1999/xlink" id="Layer_1" data-name="Layer 1" viewBox="0 0 490.5 175.47" width="490.5" height="175.47"><defs><style>.cls-1{fill:url(#linear-gradient);}.cls-2{fill:#fff;}.cls-3{fill:url(#linear-gradient-2);}</style><linearGradient id="linear-gradient" x1="309.17" y1="548.38" x2="731.4" y2="558.2" gradientUnits="userSpaceOnUse"><stop offset="0" stop-color="#7fba00"></stop><stop offset="1" stop-color="#004b23"></stop></linearGradient><linearGradient id="linear-gradient-2" x1="661.87" y1="598.12" x2="766.46" y2="598.12" xlink:href="#linear-gradient"></linearGradient><clipPath id="SvgjsClipPath1009"><rect width="1000" height="1000" x="0" y="0" rx="350" ry="350"></rect></clipPath></defs><path class="cls-1" d="M739.36,553.75a111.21,111.21,0,0,1-1.62,19.69l-3.17,1.25-33.86-24.87a26,26,0,0,0-7.45-3.81l-1.34-1.64c-3-20.17-16.69-28.19-46.16-28.19-33.47,0-47,10.67-47,37.57,0,27.71,13.55,39,47,39a114.5,114.5,0,0,0,11.87-.57l1.82.77a26.75,26.75,0,0,0,5.54,5.5l29.5,21.66-.57,3.54c-13.09,4.35-29.1,6.46-48.16,6.46-20.46,0-37.48-2.49-51.16-7.64l-2.71,1.88v.06l-2,2h-24l-20.59-20.59v-33l-2-2H485.1l-2,2v31l-22.62,22.63H438.29l-2-2v-80l-24.57-24.57h-22l-2,2V598l-28.46,28.46H342.51l-2-2V539.09l-19.22-19.22H288.51l-2-2v-22.5l12.64-12.64H466.6l16.48,16.48v32.21l2,2h58.17l2-2V510.17l27.46-27.45h17.13l2,2h0l2.7,1.88c13.68-5.09,30.7-7.59,51.17-7.59C709.6,479,739.36,502.63,739.36,553.75Z" transform="translate(-286.5 -479.02)"></path><path class="cls-2" d="M737.12,576.56l-36.41-26.74a26.16,26.16,0,0,0-36.56,5.6l-4.75,6.47a26.25,26.25,0,0,0-.59,30.16,26.6,26.6,0,0,0,6.18,6.4l32.55,23.9,43.75,32.13L777,605.86Zm2.55,67.38-34.19-25.11-36-26.46a19.3,19.3,0,0,1-2.16-1.85,18.61,18.61,0,0,1-1.82-24.17l2.37-3.23,2.38-3.24a18.62,18.62,0,0,1,22.33-6.09,18.31,18.31,0,0,1,3.68,2.11L735,584.36h0l31.46,23.1Z" transform="translate(-286.5 -479.02)"></path><path class="cls-3" d="M766.46,607.47l-26.79,36.47-34.19-25.11-36-26.46a19.3,19.3,0,0,1-2.16-1.85,18.61,18.61,0,0,1-1.82-24.17l2.37-3.23,2.38-3.24a18.62,18.62,0,0,1,22.33-6.09,18.31,18.31,0,0,1,3.68,2.11L735,584.36h0Z" transform="translate(-286.5 -479.02)"></path></svg></g></g></svg>